<svg xmlns="http://www.w3.org/2000/svg" version="1.1" xmlns:xlink="http://www.w3.org/1999/xlink" width="512" height="512" x="0" y="0" viewBox="0 0 512 512" style="enable-background:new 0 0 512 512" xml:space="preserve" class=""><g><linearGradient id="a" x1="0" x2="512" y1="256" y2="256" gradientUnits="userSpaceOnUse"><stop offset="0" stop-color="#00f2fe"></stop><stop offset=".021" stop-color="#03effe"></stop><stop offset=".293" stop-color="#24d2fe"></stop><stop offset=".554" stop-color="#3cbdfe"></stop><stop offset=".796" stop-color="#4ab0fe"></stop><stop offset="1" stop-color="#4facfe"></stop></linearGradient><path fill="url(#a)" d="M236 345.98v-70h-70c-11.047 0-20-8.953-20-20 0-11.042 8.953-20 20-20h70v-70c0-11.042 8.953-20 20-20s20 8.958 20 20v70h70c11.047 0 20 8.958 20 20 0 11.047-8.953 20-20 20h-70v70c0 11.047-8.953 20-20 20s-20-8.953-20-20zm201.02-271C388.668 26.63 324.379 0 256 0S123.332 26.629 74.98 74.98C26.63 123.332 0 187.621 0 256s26.629 132.668 74.98 181.02C123.332 485.37 187.621 512 256 512c46.813 0 92.617-12.758 132.46-36.895 9.45-5.722 12.47-18.02 6.747-27.464-5.723-9.45-18.023-12.47-27.469-6.746C334.145 461.242 295.504 472 256 472c-119.102 0-216-96.898-216-216S136.898 40 256 40s216 96.898 216 216c0 42.59-12.664 84.043-36.625 119.887-6.14 9.18-3.672 21.601 5.512 27.742 9.18 6.137 21.601 3.668 27.742-5.512C497 355.676 512 306.531 512 256c0-68.379-26.629-132.668-74.98-181.02zm0 0" opacity="1" data-original="url(#a)" class=""></path></g></svg>