<svg xmlns="http://www.w3.org/2000/svg" version="1.1" xmlns:xlink="http://www.w3.org/1999/xlink" width="512" height="512" x="0" y="0" viewBox="0 0 24 24" style="enable-background:new 0 0 512 512" xml:space="preserve" class=""><g><path d="M12 23A11 11 0 1 0 1 12a11.013 11.013 0 0 0 11 11zm0-20a9 9 0 1 1-9 9 9.01 9.01 0 0 1 9-9z" fill="#000000" opacity="1" data-original="#000000" class=""></path><path d="M8.293 15.707a1 1 0 0 0 1.414 0L12 13.414l2.293 2.293a1 1 0 0 0 1.414-1.414L13.414 12l2.293-2.293a1 1 0 0 0-1.414-1.414L12 10.586 9.707 8.293a1 1 0 0 0-1.414 1.414L10.586 12l-2.293 2.293a1 1 0 0 0 0 1.414z" fill="#000000" opacity="1" data-original="#000000" class=""></path></g></svg>