<svg xmlns="http://www.w3.org/2000/svg" version="1.1" xmlns:xlink="http://www.w3.org/1999/xlink" width="512" height="512" x="0" y="0" viewBox="0 0 800 800" style="enable-background:new 0 0 512 512" xml:space="preserve" class=""><g><g fill="#231f20"><path d="M354.381 625.453a230.928 230.928 0 0 1-75.009-12.477c-23.728-8.124-45.765-19.938-65.499-35.112-19.908-15.31-36.858-33.57-50.378-54.279-13.993-21.432-23.958-44.967-29.618-69.954-6.112-26.959-6.942-54.326-2.465-81.34a212.487 212.487 0 0 1 10.133-38.36 216.588 216.588 0 0 1 16.949-35.672c27.705-46.767 71.967-81.836 124.63-98.749a3.573 3.573 0 0 1 3.792 1.052 3.376 3.376 0 0 1 .418 3.829c-23.905 43.998-31.006 95.004-19.999 143.623 21.864 96.424 111.715 166.411 213.645 166.412h.004c15.728 0 31.563-1.668 47.072-4.953a231.308 231.308 0 0 0 22.399-5.957 3.575 3.575 0 0 1 3.794 1.052 3.379 3.379 0 0 1 .416 3.829 219.906 219.906 0 0 1-26.805 38.723 223.103 223.103 0 0 1-34.855 32.531 226.259 226.259 0 0 1-41.957 24.894c-15.276 6.958-31.46 12.275-48.104 15.804a234.862 234.862 0 0 1-48.563 5.104zm-77.25-416.604c-101.445 36.879-159.81 139.944-136.377 243.297 21.846 96.438 111.688 166.433 213.627 166.428a227.637 227.637 0 0 0 47.068-4.951c60.396-12.8 111.973-49.42 142.77-101.038a239.322 239.322 0 0 1-14.67 3.612 234.627 234.627 0 0 1-48.566 5.11h-.004a231.103 231.103 0 0 1-75.005-12.48c-23.728-8.125-45.766-19.938-65.501-35.113-19.909-15.305-36.862-33.564-50.387-54.271-13.996-21.428-23.965-44.96-29.63-69.941-5.793-25.59-6.828-51.596-3.074-77.299 3.214-22.004 9.847-43.274 19.749-63.354z" fill="#231f20" opacity="1" data-original="#231f20"></path><path d="M354.381 629.673a235.403 235.403 0 0 1-76.438-12.715c-24.177-8.278-46.633-20.317-66.742-35.78-20.29-15.601-37.566-34.215-51.349-55.323-14.266-21.849-24.425-45.842-30.193-71.312-6.23-27.482-7.076-55.384-2.511-82.927a216.618 216.618 0 0 1 10.33-39.109 220.808 220.808 0 0 1 17.276-36.362c28.238-47.664 73.347-83.405 127.018-100.643a8.009 8.009 0 0 1 2.449-.383c2.317 0 4.503.992 5.997 2.724 2.073 2.403 2.438 5.75.931 8.526-23.425 43.112-30.383 93.093-19.597 140.733 21.429 94.506 109.506 163.103 209.427 163.104 15.424 0 30.951-1.633 46.16-4.855a226.919 226.919 0 0 0 21.968-5.845 7.994 7.994 0 0 1 2.446-.383c2.318 0 4.503.994 5.997 2.725 2.073 2.404 2.438 5.75.93 8.527a224.298 224.298 0 0 1-27.317 39.466 227.785 227.785 0 0 1-35.524 33.155 230.587 230.587 0 0 1-42.767 25.371c-15.565 7.092-32.056 12.51-49.012 16.102a239.209 239.209 0 0 1-49.479 5.204zm0-6.881v2.661zm-85.607-406.141C174.5 255.996 122.696 352.983 144.972 451.232c21.41 94.519 109.474 163.123 209.398 163.123a223.351 223.351 0 0 0 46.164-4.855c55.319-11.725 103.726-44.342 134.344-90.164-1.47.344-2.94.67-4.409.982a239.174 239.174 0 0 1-49.486 5.207 235.402 235.402 0 0 1-76.438-12.719c-24.177-8.278-46.632-20.316-66.742-35.777-20.292-15.602-37.57-34.212-51.356-55.317-14.269-21.845-24.432-45.834-30.206-71.3-5.906-26.085-6.961-52.6-3.134-78.806a216.196 216.196 0 0 1 15.667-54.955z" fill="#231f20" opacity="1" data-original="#231f20"></path></g><g fill="#231f20"><path d="M417.221 590.706a231.027 231.027 0 0 1-74.99-12.475c-23.727-8.125-45.764-19.937-65.497-35.111-19.907-15.307-36.856-33.566-50.378-54.272-13.992-21.429-23.957-44.963-29.618-69.947-4.622-20.404-6.221-41.218-4.753-61.863 1.424-19.999 5.711-39.734 12.747-58.657 13.954-37.538 38.206-70.678 70.131-95.836.298-.235.633-.42.993-.55a214.776 214.776 0 0 1 7.27-2.484 3.572 3.572 0 0 1 3.791 1.053 3.376 3.376 0 0 1 .417 3.829c-23.905 43.998-31.007 95.004-19.999 143.623C289.199 444.44 379.05 514.427 480.98 514.428h.004c15.727 0 31.563-1.668 47.072-4.953a231.308 231.308 0 0 0 22.399-5.957 3.57 3.57 0 0 1 3.792 1.051 3.377 3.377 0 0 1 .418 3.83 219.618 219.618 0 0 1-25.121 36.756 223.342 223.342 0 0 1-32.365 31.287 3.525 3.525 0 0 1-1.001.554 235.758 235.758 0 0 1-30.372 8.603 234.908 234.908 0 0 1-48.566 5.11c-.006-.003-.015-.003-.019-.003zM276.508 210.123c-62.501 50.887-90.407 129.979-72.892 207.292 21.846 96.426 111.68 166.409 213.605 166.409h.018a227.625 227.625 0 0 0 47.076-4.952 228.264 228.264 0 0 0 28.895-8.147c20.615-16.336 37.746-35.864 51.016-58.143a238.246 238.246 0 0 1-14.676 3.614 234.634 234.634 0 0 1-48.566 5.11h-.004a231.103 231.103 0 0 1-75.005-12.48c-23.729-8.125-45.766-19.938-65.501-35.113-19.909-15.305-36.862-33.564-50.387-54.271-13.996-21.428-23.965-44.96-29.63-69.941-5.793-25.59-6.828-51.596-3.074-77.299 3.145-21.537 9.568-42.376 19.125-62.079z" fill="#231f20" opacity="1" data-original="#231f20"></path><path d="M417.238 594.924h-.018c-26.071 0-51.78-4.276-76.419-12.712-24.178-8.278-46.633-20.314-66.74-35.776-20.289-15.602-37.565-34.214-51.347-55.32-14.266-21.846-24.424-45.835-30.195-71.303-4.711-20.799-6.341-42.019-4.844-63.068 1.451-20.392 5.824-40.513 12.995-59.804 14.224-38.262 38.94-72.04 71.478-97.68a7.835 7.835 0 0 1 2.211-1.226c2.674-.964 5.1-1.792 7.418-2.535a8.013 8.013 0 0 1 5.612.269l1.417-1.154-.725 1.495a7.772 7.772 0 0 1 2.137 1.734c2.072 2.402 2.437 5.749.929 8.523-23.425 43.113-30.384 93.094-19.597 140.734 21.429 94.506 109.506 163.103 209.427 163.104 15.424 0 30.953-1.633 46.16-4.855a226.919 226.919 0 0 0 21.968-5.845 7.992 7.992 0 0 1 2.446-.381c2.318 0 4.503.992 5.997 2.723 2.073 2.402 2.438 5.748.931 8.523a223.862 223.862 0 0 1-25.604 37.465 227.567 227.567 0 0 1-32.984 31.886 7.918 7.918 0 0 1-2.23 1.233 240.406 240.406 0 0 1-30.94 8.766 239.236 239.236 0 0 1-49.483 5.204zm-.011-6.88.012 2.662v-2.662h-.012zM264.902 226.175c-50.99 49.752-72.769 121.027-57.069 190.328 21.411 94.507 109.472 163.102 209.388 163.103a223.403 223.403 0 0 0 73.83-12.604c17.158-13.69 31.871-29.689 43.85-47.671-1.479.345-2.957.674-4.432.988a239.167 239.167 0 0 1-49.486 5.207 235.393 235.393 0 0 1-76.438-12.719c-24.176-8.278-46.632-20.314-66.742-35.777-20.292-15.602-37.57-34.212-51.356-55.317-14.269-21.845-24.432-45.834-30.206-71.3-5.906-26.085-6.961-52.599-3.134-78.806a215.865 215.865 0 0 1 11.795-45.432z" fill="#231f20" opacity="1" data-original="#231f20"></path></g><g fill="#231f20"><path d="M375.594 294.505a3.577 3.577 0 0 1-2.082-.665 3.396 3.396 0 0 1-1.262-3.854l13.703-40.501-35.691-24.986a3.396 3.396 0 0 1-1.3-3.852c.469-1.421 1.823-2.385 3.352-2.385h.007l44.098.09 13.544-40.581c.472-1.416 1.824-2.374 3.348-2.374s2.876.957 3.349 2.374l13.547 40.581 44.101-.09h.008c1.529 0 2.884.963 3.353 2.385.471 1.423-.057 2.981-1.302 3.852l-35.694 24.986 13.685 40.502a3.393 3.393 0 0 1-1.264 3.854 3.59 3.59 0 0 1-4.143.014l-35.639-25.135-35.656 25.136a3.59 3.59 0 0 1-2.062.649zm37.718-33.47c.723 0 1.446.218 2.063.652l28.888 20.373-11.09-32.82a3.396 3.396 0 0 1 1.292-3.874l28.858-20.201-35.663.073h-.007c-1.525 0-2.876-.958-3.35-2.374l-10.99-32.927-10.988 32.927c-.473 1.416-1.825 2.374-3.35 2.374h-.008l-35.66-.073 28.855 20.201c1.252.876 1.777 2.446 1.293 3.875l-11.104 32.818 28.898-20.373a3.59 3.59 0 0 1 2.063-.651z" fill="#231f20" opacity="1" data-original="#231f20"></path><path d="M451.012 298.724a7.926 7.926 0 0 1-4.59-1.45l-33.11-23.352-33.129 23.353a7.923 7.923 0 0 1-4.589 1.449 7.912 7.912 0 0 1-4.634-1.482c-2.751-1.969-3.881-5.417-2.811-8.581l12.708-37.556-33.11-23.178c-2.782-1.948-3.945-5.394-2.896-8.576 1.049-3.176 4.048-5.309 7.464-5.309l40.972.082 12.571-37.662c1.054-3.161 4.049-5.285 7.454-5.285 3.404 0 6.4 2.124 7.454 5.285l12.572 37.662 40.961-.082c3.433 0 6.431 2.133 7.479 5.309 1.051 3.181-.112 6.628-2.896 8.576l-33.114 23.18 12.69 37.556c1.067 3.165-.063 6.612-2.813 8.581a7.917 7.917 0 0 1-4.633 1.48zm-37.7-41.907c1.658 0 3.246.5 4.591 1.448l18.078 12.75-6.911-20.454c-1.08-3.197.077-6.665 2.88-8.627l17.893-12.523-22.174.044c-3.419 0-6.416-2.124-7.471-5.285l-6.885-20.623-6.883 20.623c-1.055 3.162-4.052 5.285-7.456 5.285l-22.187-.044 17.892 12.524c2.804 1.963 3.96 5.43 2.877 8.63l-6.919 20.45 18.087-12.75a7.914 7.914 0 0 1 4.588-1.448z" fill="#231f20" opacity="1" data-original="#231f20"></path></g><g fill="#231f20"><path d="M640.029 380.632a3.58 3.58 0 0 1-2.062-.651l-44.459-31.356-44.438 31.356c-1.236.873-2.911.868-4.143-.014s-1.744-2.438-1.264-3.855l17.088-50.517-44.535-31.171a3.4 3.4 0 0 1-1.302-3.853c.47-1.421 1.824-2.384 3.353-2.384h.008l54.997.112 16.888-50.619c.473-1.416 1.824-2.374 3.348-2.374s2.876.957 3.349 2.373l16.913 50.62 54.996-.112c1.532 0 2.891.961 3.359 2.384a3.399 3.399 0 0 1-1.3 3.853l-44.532 31.171 17.082 50.517a3.394 3.394 0 0 1-1.264 3.855 3.574 3.574 0 0 1-2.082.665zm-46.52-39.69c.724 0 1.447.216 2.062.649l37.705 26.592-14.485-42.833c-.482-1.429.041-3 1.294-3.875l37.695-26.386-46.557.094h-.008c-1.523 0-2.875-.958-3.347-2.374l-14.356-42.968-14.335 42.967c-.473 1.416-1.824 2.374-3.349 2.374h-.008l-46.559-.094 37.698 26.386a3.393 3.393 0 0 1 1.292 3.875l-14.485 42.828 37.681-26.586a3.58 3.58 0 0 1 2.062-.649z" fill="#231f20" opacity="1" data-original="#231f20"></path><path d="M640.029 384.851a7.926 7.926 0 0 1-4.59-1.449l-41.931-29.571-41.908 29.57a7.925 7.925 0 0 1-4.592 1.45 7.913 7.913 0 0 1-4.633-1.479c-2.753-1.97-3.884-5.419-2.813-8.583l16.091-47.571-41.953-29.365c-2.783-1.947-3.947-5.393-2.896-8.576 1.049-3.175 4.048-5.309 7.463-5.309l51.873.105 15.913-47.699c1.056-3.161 4.049-5.286 7.454-5.286 3.403 0 6.399 2.123 7.455 5.282l15.938 47.703 51.856-.105c3.431.002 6.432 2.136 7.479 5.309 1.051 3.182-.113 6.629-2.896 8.576l-41.951 29.365 16.086 47.572c1.07 3.165-.06 6.613-2.811 8.581a7.908 7.908 0 0 1-4.634 1.48zm-46.52-48.128c1.658 0 3.247.5 4.591 1.449l26.892 18.966-10.302-30.464c-1.081-3.198.075-6.666 2.879-8.627l26.73-18.711-33.066.067c-3.421 0-6.416-2.124-7.471-5.284l-10.246-30.669-10.232 30.667c-1.056 3.162-4.051 5.286-7.455 5.286l-33.084-.067 26.731 18.71c2.803 1.962 3.96 5.43 2.878 8.63l-10.301 30.452 26.864-18.955a7.937 7.937 0 0 1 4.592-1.45z" fill="#231f20" opacity="1" data-original="#231f20"></path></g></g></svg>