<svg xmlns="http://www.w3.org/2000/svg" version="1.1" xmlns:xlink="http://www.w3.org/1999/xlink" width="512" height="512" x="0" y="0" viewBox="0 0 512 512" style="enable-background:new 0 0 512 512" xml:space="preserve" class=""><g><path d="M469.333 21.333H42.667C19.146 21.333 0 40.469 0 64v298.667c0 23.531 19.146 42.667 42.667 42.667h149.381c-.448 17.018-3.698 44.24-15.902 57.094-4.479 4.708-9.604 6.906-16.146 6.906a10.66 10.66 0 0 0-10.667 10.667A10.66 10.66 0 0 0 160 490.668h192a10.66 10.66 0 0 0 10.667-10.667A10.66 10.66 0 0 0 352 469.334c-6.542 0-11.667-2.188-16.125-6.896-12.174-12.79-15.445-40.051-15.91-57.104h149.369c23.521 0 42.667-19.135 42.667-42.667V64c-.001-23.531-19.147-42.667-42.668-42.667zM256 384.062c-11.792 0-21.396-9.604-21.396-21.396S244.208 341.27 256 341.27s21.396 9.604 21.396 21.396-9.604 21.396-21.396 21.396zM42.667 320V64h426.667l.018 256H42.667z" fill="#000000" opacity="1" data-original="#000000"></path></g></svg>